<?xml version="1.0" encoding="UTF-8"?>
<svg width="18px" height="18px" viewBox="0 0 18 18" version="1.1" xmlns="http://www.w3.org/2000/svg">
    <g stroke="none" stroke-width="1" fill="none" fill-rule="evenodd">
        <path d="M17.0062 9.00625C17.0062 4.03125 13.0062 0 8.00625 0C3.00625 0 -0.99375 4.03125 -0.99375 9.00625C-0.99375 13.5 1.65625 17.2188 5.34375 17.8875V11.5688H3.69375V9.00625H5.34375V7.03125C5.34375 4.78125 6.43125 3.5625 8.46875 3.5625C9.43125 3.5625 10.4375 3.75 10.4375 3.75V5.34375H9.3125C8.21875 5.34375 7.875 5.96875 7.875 6.65625V9.00625H10.3125L9.96875 11.5688H7.875V17.8875C11.5625 17.2188 14.2125 13.5 14.2125 9.00625H17.0062Z" fill="#1877F2"/>
    </g>
</svg> 