<?xml version="1.0" encoding="UTF-8"?>
<svg width="24px" height="24px" viewBox="0 0 24 24" version="1.1" xmlns="http://www.w3.org/2000/svg">
    <path fill="#2C3E50" d="M17.5,3.5 L16,3.5 L16,2 C16,1.44771525 15.5522847,1 15,1 L9,1 C8.44771525,1 8,1.44771525 8,2 L8,3.5 L6.5,3.5 C5.67157288,3.5 5,4.17157288 5,5 L5,21 C5,22.1045695 5.8954305,23 7,23 L17,23 C18.1045695,23 19,22.1045695 19,21 L19,5 C19,4.17157288 18.3284271,3.5 17.5,3.5 Z M10,3 L14,3 L14,2 L10,2 L10,3 Z M17,21 L7,21 L7,5.5 L8.5,5.5 L15.5,5.5 L17,5.5 L17,21 Z"/>
</svg> 